# xmcd
#
# Track frame offsets: 
#        150
#        10297
#        20165
#        34735
#        68378
#        89517
#        112781
#        133105
#        150092
#        166703
#        178466
#        192500
#        213785
#        234095
#
# Disc length: 3495 seconds
#
# Revision: 0
# Processed by: cddbd v1.5.2PL0 Copyright (c) Steve Scherf et al.
# Submitted via: ExactAudioCopy v1.3
#
DISCID=a80da50e
DTITLE=Buddy Guy with Junior Wells - Everyday I Have The Blues
DYEAR=2004
DGENRE=Chicago Blues, Electric Blues
TTITLE0=First Time I Met The Blues
TTITLE1=Slop Around
TTITLE2=Broken Hearted Blues
TTITLE3=Stone Crazy
TTITLE4=Buddy's Blues
TTITLE5=Stormy Monday
TTITLE6=Everyday I Have The Blues
TTITLE7=Woman Blues
TTITLE8=Satisfaction
TTITLE9=Messin' With The Kid
TTITLE10=No Use Crying
TTITLE11=Just To Be With You
TTITLE12=Junior's Shuffle
TTITLE13=Out Of Sight
EXTD=
EXTT0=
EXTT1=
EXTT2=
EXTT3=
EXTT4=
EXTT5=
EXTT6=
EXTT7=
EXTT8=
EXTT9=
EXTT10=
EXTT11=
EXTT12=
EXTT13=
PLAYORDER=
